<svg xmlns="http://www.w3.org/2000/svg" xmlns:xlink="http://www.w3.org/1999/xlink" viewBox="0 0 52.16 52.16"><defs><style>.cls-1{isolation:isolate;}.cls-2{fill:#fff;}.cls-3{fill:#333;}.cls-4{mix-blend-mode:overlay;fill:url(#Degradado_sin_nombre_148);}</style><radialGradient id="Degradado_sin_nombre_148" cx="21.48" cy="18.2" r="26.08" gradientUnits="userSpaceOnUse"><stop offset="0" stop-color="#fff"/><stop offset="1"/></radialGradient></defs><g class="cls-1"><g id="Layer_2" data-name="Layer 2"><g id="OBJECTS"><path class="cls-2" d="M52.16,26.08A26.08,26.08,0,1,0,26.08,52.16,26.08,26.08,0,0,0,52.16,26.08Z"/><path class="cls-3" d="M28.38,19.9V17.43A1.3,1.3,0,0,1,29.74,16h3.47V10.66l-4.78,0c-5.29,0-6.5,3.94-6.5,6.47V19.9H18.87v6.18H22V41.52h6.18V26.08h4.58l.57-6.18Z"/><path class="cls-4" d="M52.16,26.08A26.08,26.08,0,1,0,26.08,52.16,26.08,26.08,0,0,0,52.16,26.08Z"/></g></g></g></svg>