<svg xmlns="http://www.w3.org/2000/svg" xmlns:xlink="http://www.w3.org/1999/xlink" viewBox="0 0 52.22 52.23"><defs><style>.cls-1{isolation:isolate;}.cls-2{fill:#fff;}.cls-3{fill:url(#Degradado_sin_nombre_500);}.cls-4{mix-blend-mode:overlay;fill:url(#Degradado_sin_nombre_148);}</style><radialGradient id="Degradado_sin_nombre_500" cx="14.33" cy="14.54" r="35.76" gradientTransform="translate(-0.76) scale(1.03 1)" gradientUnits="userSpaceOnUse"><stop offset="0.02" stop-color="#333"/><stop offset="0.32" stop-color="#333"/><stop offset="0.72" stop-color="#333"/><stop offset="1" stop-color="#333"/></radialGradient><radialGradient id="Degradado_sin_nombre_148" cx="18.89" cy="18.23" r="26.11" gradientUnits="userSpaceOnUse"><stop offset="0" stop-color="#fff"/><stop offset="1"/></radialGradient></defs><g class="cls-1"><g id="Layer_2" data-name="Layer 2"><g id="OBJECTS"><path class="cls-2" d="M26.11,0A26.12,26.12,0,1,0,52.22,26.12,26.11,26.11,0,0,0,26.11,0Z"/><path class="cls-3" d="M17.68,39.48ZM32.62,13ZM26.15,36.13a9.32,9.32,0,1,0-9.33-9.32A9.33,9.33,0,0,0,26.15,36.13Zm-7.06-9.32a7.06,7.06,0,1,1,7.06,7.07A7.07,7.07,0,0,1,19.09,26.81Zm22.48,8.78a6.33,6.33,0,0,1-6.33,6.33H16.9a6.34,6.34,0,0,1-6.33-6.33V17.25a6.33,6.33,0,0,1,6.33-6.33H35.24a6.32,6.32,0,0,1,6.33,6.33Zm-2-18.31a4.4,4.4,0,0,0-4.17-4.36H16.65c-2.29,0-4.08,2.45-4.08,4.67V35.82a4.09,4.09,0,0,0,4.08,4.1H35.4c2.29,0,4.17-2.3,4.17-4.52Zm-2.5-.38a1.47,1.47,0,1,1-1.47-1.48A1.47,1.47,0,0,1,37.07,16.9Z"/><path class="cls-4" d="M26.11,0A26.12,26.12,0,1,0,52.22,26.12,26.11,26.11,0,0,0,26.11,0Z"/></g></g></g></svg>