<svg xmlns="http://www.w3.org/2000/svg" xmlns:xlink="http://www.w3.org/1999/xlink" viewBox="0 0 52.16 52.16"><defs><style>.cls-1{isolation:isolate;}.cls-2{fill:#fff;}.cls-3{fill:#333;}.cls-4{mix-blend-mode:overlay;fill:url(#Degradado_sin_nombre_148);}</style><radialGradient id="Degradado_sin_nombre_148" cx="20.17" cy="20.17" r="26.08" gradientUnits="userSpaceOnUse"><stop offset="0" stop-color="#fff"/><stop offset="1"/></radialGradient></defs><g class="cls-1"><g id="Layer_2" data-name="Layer 2"><g id="OBJECTS"><path class="cls-2" d="M52.16,26.08A26.08,26.08,0,1,0,26.08,52.16,26.08,26.08,0,0,0,52.16,26.08Z"/><path class="cls-3" d="M13.66,19.71h6V37h-6Zm3-8.62a3,3,0,0,0-2.94,3.69,3,3,0,0,0,2.31,2.28,3,3,0,1,0,.63-6ZM39.54,25c-.41-3.25-2-5.3-6.43-5.3-3.12,0-4.36.49-5.08,1.85h0V19.71H23.15V37h5v-9c0-2.26.42-4,3.21-4s3,2.09,3,4.1V37h5.18S39.63,25.77,39.54,25Z"/><path class="cls-4" d="M52.16,26.08A26.08,26.08,0,1,0,26.08,52.16,26.08,26.08,0,0,0,52.16,26.08Z"/></g></g></g></svg>