<svg xmlns="http://www.w3.org/2000/svg" xmlns:xlink="http://www.w3.org/1999/xlink" viewBox="0 0 52.16 52.16"><defs><style>.cls-1{isolation:isolate;}.cls-2{fill:#fff;}.cls-3{fill:#333;}.cls-4{mix-blend-mode:overlay;fill:url(#Degradado_sin_nombre_148);}</style><radialGradient id="Degradado_sin_nombre_148" cx="20.82" cy="22.79" r="26.08" gradientUnits="userSpaceOnUse"><stop offset="0" stop-color="#fff"/><stop offset="1"/></radialGradient></defs><g class="cls-1"><g id="Layer_2" data-name="Layer 2"><g id="OBJECTS"><path class="cls-2" d="M52.16,26.08A26.08,26.08,0,1,0,26.08,52.16,26.08,26.08,0,0,0,52.16,26.08Z"/><path class="cls-3" d="M41.3,17.91a12.25,12.25,0,0,1-3.33.85,6.19,6.19,0,0,0,2.7-3.2.1.1,0,0,0-.14-.12,12.9,12.9,0,0,1-3.8,1.39,6.36,6.36,0,0,0-11,4.26,6.74,6.74,0,0,0,.16,1.43A18.11,18.11,0,0,1,12.9,16s0,0-.06,0a6.18,6.18,0,0,0,1.88,8.21,0,0,0,0,1,0,.07A6.43,6.43,0,0,1,12,23.57s0,0,0,0a8.26,8.26,0,0,0,.42,2.29,6.39,6.39,0,0,0,4.66,3.85,6.59,6.59,0,0,1-1.67.22,6.12,6.12,0,0,1-1.14-.1,0,0,0,0,0,0,0A6.34,6.34,0,0,0,20,34.18s.06,0,0,.06a12.81,12.81,0,0,1-7.79,2.61,15.11,15.11,0,0,1-1.51-.08,18.16,18.16,0,0,0,9.71,2.8,17.66,17.66,0,0,0,11.88-4.29A18.35,18.35,0,0,0,38,25.58a17.28,17.28,0,0,0,.43-3.76c0-.27,0-.54,0-.81a12.6,12.6,0,0,0,3-3A.1.1,0,0,0,41.3,17.91Z"/><path class="cls-4" d="M52.16,26.08A26.08,26.08,0,1,0,26.08,52.16,26.08,26.08,0,0,0,52.16,26.08Z"/></g></g></g></svg>